<?xml version="1.0" encoding="UTF-8" standalone="no"?>
<!-- Created with Inkscape (http://www.inkscape.org/) -->

<svg
   xmlns:dc="http://purl.org/dc/elements/1.1/"
   xmlns:cc="http://creativecommons.org/ns#"
   xmlns:rdf="http://www.w3.org/1999/02/22-rdf-syntax-ns#"
   xmlns:svg="http://www.w3.org/2000/svg"
   xmlns="http://www.w3.org/2000/svg"
   xmlns:sodipodi="http://sodipodi.sourceforge.net/DTD/sodipodi-0.dtd"
   xmlns:inkscape="http://www.inkscape.org/namespaces/inkscape"
   width="210mm"
   height="297mm"
   viewBox="0 0 210 297"
   version="1.1"
   id="svg5121"
   inkscape:version="0.92.2 5c3e80d, 2017-08-06"
   sodipodi:docname="wanderer-whistle.svg">
  <defs
     id="defs5115" />
  <sodipodi:namedview
     id="base"
     pagecolor="#ffffff"
     bordercolor="#666666"
     borderopacity="1.0"
     inkscape:pageopacity="0.0"
     inkscape:pageshadow="2"
     inkscape:zoom="2.8"
     inkscape:cx="328.12998"
     inkscape:cy="517.57614"
     inkscape:document-units="mm"
     inkscape:current-layer="layer1"
     showgrid="false"
     inkscape:window-width="1595"
     inkscape:window-height="822"
     inkscape:window-x="1405"
     inkscape:window-y="85"
     inkscape:window-maximized="0" />
  <metadata
     id="metadata5118">
    <rdf:RDF>
      <cc:Work
         rdf:about="">
        <dc:format>image/svg+xml</dc:format>
        <dc:type
           rdf:resource="http://purl.org/dc/dcmitype/StillImage" />
        <dc:title></dc:title>
      </cc:Work>
    </rdf:RDF>
  </metadata>
  <g
     inkscape:label="Layer 1"
     inkscape:groupmode="layer"
     id="layer1">
    <path
       sodipodi:nodetypes="csccsssccscsccscsccscsccscsccsc"
       inkscape:connector-curvature="0"
       id="path5693"
       d="m 84.569266,159.58908 c -2.774194,-4.83597 -3.579951,-9.71687 -3.74882,-11.5858 -0.538382,-5.95846 6.439998,-10.48964 7.645767,-2.27784 -5.550815,7.11494 -7.188421,1.82742 -6.587244,-2.15436 4.245958,-5.15341 6.886282,-0.77617 6.570091,4.69271 -0.212838,3.68126 -1.505573,8.59695 -3.879794,11.32529 -2.127594,2.44492 -5.69203,5.89164 -7.156173,9.27632 -2.17491,5.02776 -1.158142,10.0502 4.585715,6.64522 1.917806,-3.54091 2.17339,-9.07031 -5.463969,-4.26358 -1.654949,8.13318 6.447571,6.24148 7.964914,0.45436 0.47593,-1.81519 1.32889,-5.98949 0.314838,-11.77551 -0.664096,-3.85905 -4.112679,-7.59428 -6.961727,-9.9352 -4.232556,-3.47766 -9.325004,-3.92329 -7.662706,2.54376 2.863076,2.83174 8.100232,4.62389 5.621823,-4.05317 -7.34554,-3.864 -7.795908,4.44422 -2.664273,7.51983 1.60959,0.9647 5.824233,3.3087 11.666883,3.92478 3.82392,0.82541 10.095704,-0.47488 13.360051,-2.18981 4.849508,-2.54773 7.239748,-7.0664 0.635152,-8.04887 -3.722018,1.53705 -7.40912,5.6656 1.548916,6.75529 6.41561,-5.26568 -1.064047,-8.91039 -5.892639,-5.37801 -1.514542,1.10796 -6.862758,3.63133 -9.684193,8.71358 -3.80859,4.14075 -7.52318,7.0713 -9.061774,8.14561 -4.905292,3.42508 -12.302793,-0.38359 -5.772675,-5.50658 8.931846,1.28686 5.154642,5.33314 1.39965,6.78779 -6.581337,-1.12781 -4.0951,-5.59877 0.812402,-8.03292 3.299661,-1.63665 8.687052,-1.82852 12.622397,-1.3939 5.505508,2.02177 11.721902,7.00595 13.055658,8.32599 4.252234,4.20851 -1.375249,10.94242 -7.590151,5.44129 -0.342163,-9.01758 6.68036,-7.06998 8.787253,-3.63822 0.0755,8.83158 -7.126971,6.16088 -10.410276,1.68647 -2.181493,-2.97289 -4.058774,-8.05955 -3.809771,-11.66771"
       style="fill:none;fill-rule:evenodd;stroke:#000000;stroke-width:0.26458332px;stroke-linecap:butt;stroke-linejoin:miter;stroke-opacity:1" />
  </g>
</svg>
